<?xml version="1.0" encoding="utf-8"?>
<!-- Generator: Adobe Illustrator 26.0.1, SVG Export Plug-In . SVG Version: 6.00 Build 0)  -->
<svg version="1.1" id="Layer_1" xmlns="http://www.w3.org/2000/svg" xmlns:xlink="http://www.w3.org/1999/xlink" x="0px" y="0px"
	 viewBox="0 0 3000 2000" style="enable-background:new 0 0 3000 2000;" xml:space="preserve">
<style type="text/css">
	.st0{fill:#FFFFFF;}
	.st1{fill:#006837;}
	.st2{fill:#CC1B08;}
</style>
<g>
	<rect x="0" class="st0" width="3000" height="2000"/>
	<g>
		<g>
			<g>
				<path d="M831.9,1024.5c1.9,2,3.9,3.8,5.5,5.9c7.4,9.4,14.7,18.8,22,28.2c7.9,10,12.3,10,20.3-0.2c6.7-8.6,13.3-17.2,20.1-25.7
					c2.1-2.6,4.4-5.1,8.3-9.6c0.3,4.8,0.7,7.2,0.7,9.6c0,91.8,1,183.6-0.3,275.3c-0.9,59.8,45.7,115.7,113.1,118.1
					c68.9,2.4,137.9,1.3,206.9,1.3c239.8,0.1,479.6,0,719.4,0c21.7,0,43.4,0.2,64.4-7.1c47.1-16.3,77.8-58.2,78.1-107.8
					c0.3-52.3,0.1-104.5,0.1-156.8c0-1.8-0.2-3.6-0.3-6.5c-15,0-29.7,0.1-44.5-0.1c-2.7,0-5.3-1.3-8-2c1.1-2.6,1.7-5.5,3.3-7.7
					c27.1-37,54.3-73.9,81.5-110.8c6.4-8.7,8.7-8.8,15.2,0.1c27.4,37.4,54.7,74.9,81.9,112.5c1.4,1.9,2.1,4.4,3.6,7.8
					c-18.6,0-35.7,0-53.9,0c0,4,0,7.4,0,10.7c0,49.1-0.1,98.1,0,147.2c0.4,106.6-78.1,180-167.4,195.7c-10.9,1.9-22.1,2.9-33.2,3
					c-313.5,0.1-627.1,0.1-940.6,0.1c-97.4,0-182.8-73.6-196.7-169.8c-1.1-7.6-1.7-15.3-1.7-23c-0.1-93.6-0.1-187.3-0.1-280.9
					c0-2.1,0.2-4.2,0.3-6.2C830.7,1025.3,831.3,1024.9,831.9,1024.5z"/>
				<path class="st1" d="M2091.8,1016.6c-0.4-3.2-1.1-6.3-1.1-9.5c-0.2-80.1-0.1-160.2-0.4-240.3c-0.2-60.1-45.7-109.9-105.4-115.7
					c-10.3-1-20.6-1.5-30.9-1.5c-305.3-0.1-610.6,0-916-0.1c-32.2,0-62,7.6-87.4,28.3c-27.1,22.1-41.1,50.8-41.4,85.7
					c-0.4,42.7,0,85.4,0,128.1c0,2.3,0,4.7,0,8c15.7,0,30.8-0.1,45.8,0.1c2.7,0,5.3,1.3,8,2.1c-1.1,2.3-1.8,4.9-3.2,6.9
					c-25.9,35.6-51.9,71.1-77.9,106.6c-1.4,1.9-2.8,3.8-4.4,5.6c-5.2,6-8.5,6.2-13.4-0.1c-10.8-13.8-21.3-27.8-31.8-41.8
					c-17.5-23.3-35-46.7-52.3-70.1c-1.6-2.1-2.2-5-3.3-7.5c2.7-0.6,5.4-1.7,8.1-1.7c14.8-0.2,29.6-0.1,45.3-0.1c0-3.5,0-6.4,0-9.2
					c0-39.5,0.5-79.1-0.1-118.6c-1.5-100.2,71.6-181.4,168.7-198.1c10.1-1.7,20.6-2.1,30.9-2.1c312.8-0.1,625.5-0.1,938.3,0
					c96.3,0,176.9,64.3,197.4,157.4c2.6,11.6,3.9,23.6,3.9,35.5c0.3,80.9,0.2,161.8,0.2,242.7c0,1.1,0.2,2.2-0.1,3.2
					c-0.7,2.1-1.6,4-2.5,6c-1.7-1.1-3.8-1.8-5-3.3c-6.8-8.4-13.5-17.1-20.2-25.6c-1.5-1.9-2.9-3.8-4.4-5.6
					c-5.5-6.4-10.3-6.5-15.6,0.2c-7.6,9.6-14.9,19.3-22.3,29c-1.6,2.1-3.3,4-5,6C2093.5,1016.9,2092.6,1016.7,2091.8,1016.6z"/>
			</g>
			<g>
				<g>
					<path class="st2" d="M1446.8,866.8c0,6.6-0.3,13.3,0.1,19.9c0.3,5.2-1.7,8.2-6.1,11c-25.8,16.2-43.2,38.9-50.9,68.5
						c-15.8,60.9,22.4,123.1,84.4,137.8c63.2,15,127.8-27.8,137.5-92c7.2-47.6-10.9-84.9-49.6-112.3c-6.3-4.5-9.2-8.8-8.9-16.6
						c0.6-11.9,0.1-23.9,0.1-35.8c0-9.5,2.9-11.5,11.9-7.7c33.8,14.1,59.9,37.2,78.9,68.4c60,98.7,2.1,228.8-111.4,250.6
						c-92.7,17.8-180.5-41.5-198.3-134c-13.2-68.6,20.1-141.5,80.7-175.9c6.9-3.9,14.3-6.9,21.7-9.7c7.3-2.7,9.9-0.6,9.9,7
						C1446.9,852.8,1446.8,859.8,1446.8,866.8z"/>
					<path class="st2" d="M1527.7,889.4c0,33.5-0.1,67.1,0.1,100.6c0,5.1-1.1,7.1-6.6,7c-13.8-0.3-27.7-0.2-41.5,0
						c-4.4,0.1-6.1-1.4-6.1-5.9c0.1-68,0.1-136,0-204c0-5,2-6.5,6.8-6.4c13.6,0.2,27.3,0.3,40.9,0c5.5-0.1,6.7,2,6.7,7
						c-0.2,33.9-0.1,67.8-0.1,101.7C1527.9,889.4,1527.8,889.4,1527.7,889.4z"/>
				</g>
			</g>
			<path class="st2" d="M1505,1414.4c-3.6,0-7,0-10.6,0c0.2-3.9,0.4-7.7,0.6-11.5c0.4-7.5,0.9-14.9,1.4-22.4
				c0.4-5.9,0.8-11.8,1-17.6c0.2-5.8-2.4-8.1-8.1-7.1c-15,2.4-29.9,4.9-44.9,7.4c-0.5,0.1-1,0.1-1.3,0.1c1.5-5.8,2.9-11.5,4.4-17.3
				c0.8-3-0.1-5.1-2.6-7.1c-17-13.5-33.9-27.1-51.2-40.9c3.2-1.5,6.1-2.9,9-4.4c5.3-2.8,5.7-3.8,4.1-9.6
				c-3.1-10.6-6.2-21.2-9.4-32.2c4.5,1.1,8.6,2,12.8,3c5.4,1.3,10.7,2.6,16.1,3.9c4.6,1.1,6.9-0.3,7.9-4.9c0.9-4,1.6-8.1,2.4-12.5
				c2.4,2.7,4.7,5.3,6.9,7.9c5.5,6.4,10.9,12.9,16.4,19.3c2.1,2.5,4.6,3.3,6.7,2.3c2-0.9,2.9-3.6,2.3-6.7
				c-1.8-8.6-3.6-17.2-5.4-25.7c-2.2-10.3-4.3-20.5-6.5-30.8c5.1,2.7,10,5.5,15.1,8.1c4.8,2.5,7,1.9,9.5-3
				c5.8-11.4,11.5-22.9,17.2-34.3c0.4-0.8,0.9-1.7,1.4-2.7c4.5,9,8.8,17.9,13.2,26.7c1.9,3.8,3.8,7.7,5.8,11.5
				c2.3,4.3,4.6,5,8.7,2.5c5.2-3.1,10.3-6.3,15.8-9.8c-1.3,6.1-2.5,11.8-3.7,17.5c-3,14-5.9,27.9-8.9,41.9c-0.2,0.8-0.5,1.9-0.1,2.6
				c0.9,1.5,1.9,3.5,3.2,3.9c1.2,0.4,3.5-0.6,4.5-1.7c5.6-6.2,10.9-12.7,16.3-19c2.6-3,5.2-6.1,8.3-9.6c0.8,4.1,1.5,7.6,2.2,11.1
				c0.2,0.9,0.3,1.9,0.6,2.8c1,3.3,3.4,4.7,6.7,3.8c9.8-2.5,19.5-5,29.6-7.6c-1.6,5.7-3.2,11.1-4.8,16.6c-1.7,5.8-3.4,11.6-5.1,17.4
				c-1.1,3.9-0.4,5.7,3.3,7.5c3.4,1.6,6.9,3,10.5,4.6c-6.7,5.4-13.4,10.8-20,16.1c-10.4,8.4-20.8,16.8-31.3,25.1
				c-2.7,2.1-3.3,4.5-2.5,7.6c1.5,5.4,2.9,10.8,4.5,16.6c-3.1-0.4-6.1-0.8-9.1-1.3c-13-2.2-25.9-4.4-38.9-6.6
				c-3.9-0.7-6.4,1.1-6.4,4.9c0,8,0.4,16,0.7,24C1503.8,1394.3,1504.4,1404.2,1505,1414.4z"/>
		</g>
		<g>
			<path d="M1326.6,492.5c3.8,4.9,5.7,10.5,5.7,16.8c0,9.1-3.2,16.3-9.5,21.6c-6.3,5.3-15.2,8-26.6,8h-50.6V430.2h48.9
				c11,0,19.7,2.5,25.9,7.6c6.2,5.1,9.4,11.9,9.4,20.6c0,6.4-1.7,11.7-5,16c-3.4,4.2-7.8,7.2-13.4,8.8
				C1317.7,484.5,1322.8,487.6,1326.6,492.5z M1272.1,474.1h17.3c4.3,0,7.7-1,10-2.9c2.3-1.9,3.5-4.7,3.5-8.4c0-3.7-1.2-6.6-3.5-8.5
				c-2.3-2-5.7-2.9-10-2.9h-17.3V474.1z M1301.9,514.5c2.4-2,3.6-4.9,3.6-8.8c0-3.8-1.3-6.8-3.8-9c-2.5-2.2-6-3.3-10.5-3.3h-19.2v24
				h19.5C1296.1,517.5,1299.5,516.5,1301.9,514.5z"/>
			<path d="M1418.5,430.2v21.2h-44.3v22.9h33.1v20.6h-33.1v44h-26.5V430.2H1418.5z"/>
			<path d="M1460.6,517.2h46.8v21.7h-76.8v-20.1l46.5-66.9h-46.5v-21.7h76.8v20.1L1460.6,517.2z"/>
			<path d="M1526.6,439.4c-2.9-2.7-4.4-6.1-4.4-10.1c0-4.1,1.5-7.6,4.4-10.3c2.9-2.7,6.7-4.1,11.4-4.1c4.5,0,8.3,1.4,11.2,4.1
				c2.9,2.7,4.4,6.2,4.4,10.3c0,4-1.5,7.4-4.4,10.1c-2.9,2.7-6.7,4.1-11.2,4.1C1533.4,443.5,1529.6,442.1,1526.6,439.4z
				 M1551.2,452.5v86.4h-26.5v-86.4H1551.2z"/>
			<path d="M1647.3,461.4c6,6.6,9.1,15.6,9.1,27v50.5H1630V492c0-5.8-1.5-10.3-4.5-13.5c-3-3.2-7-4.8-12.1-4.8
				c-5.1,0-9.1,1.6-12.1,4.8c-3,3.2-4.5,7.7-4.5,13.5v46.9h-26.5v-86.4h26.5v11.5c2.7-3.8,6.3-6.8,10.8-9.1
				c4.5-2.2,9.7-3.3,15.3-3.3C1633.2,451.5,1641.2,454.8,1647.3,461.4z"/>
			<path d="M1675,472.1c3.7-6.7,8.8-11.9,15.3-15.5c6.6-3.6,14.1-5.4,22.5-5.4c10.8,0,19.9,2.8,27.2,8.5c7.3,5.7,12.1,13.7,14.3,24
				h-28.2c-2.4-6.6-7-9.9-13.8-9.9c-4.9,0-8.7,1.9-11.6,5.7c-2.9,3.8-4.3,9.2-4.3,16.2c0,7,1.4,12.4,4.3,16.2
				c2.9,3.8,6.8,5.7,11.6,5.7c6.8,0,11.4-3.3,13.8-9.9h28.2c-2.3,10.1-7.1,18.1-14.4,23.9c-7.3,5.8-16.4,8.7-27.1,8.7
				c-8.5,0-16-1.8-22.5-5.4c-6.6-3.6-11.7-8.8-15.3-15.5c-3.7-6.7-5.5-14.6-5.5-23.5C1669.5,486.7,1671.3,478.8,1675,472.1z"/>
		</g>
		<g>
			<path d="M954.6,1568.8h9.5c0,4.9,4.4,8.3,10.4,8.3c5.2,0,8.4-2.6,8.4-5.8c0-9.5-27.9-1.5-27.9-19.4c0-8.8,7.5-14.9,18.4-14.9
				c10.9,0,18.8,6.6,18.8,15.6H983c0.1-4.4-3.9-7.6-9.3-7.6c-5,0-8.3,2.3-8.3,5.5c0,9.2,28,1.3,28,19.3c0,9-7.6,15.3-19.1,15.3
				C962.8,1585.2,954.6,1578.3,954.6,1568.8z"/>
			<path d="M996.3,1547.5v-8.8h37.6v8.8h-13.5v36.1h-10.6v-36.1H996.3z"/>
			<path d="M1077.9,1583.6h-11.1l-2.7-8.1h-18.1l-2.5,8.1h-11.2l15.1-45h15.4L1077.9,1583.6z M1048.4,1567.8h13.6l-6.8-20.1
				L1048.4,1567.8z"/>
			<path d="M1084.2,1538.6h21.8c10.4,0,17.7,6.1,17.7,15c0,6-4,10.9-9.9,12.8l10.9,17.2h-11.9l-8.8-15.7h-9.2v15.7h-10.6V1538.6z
				 M1094.8,1546.6v13.7h9.5c5,0,8.8-2.7,8.8-6.8c0-4.4-3.8-6.9-8.8-6.9H1094.8z"/>
			<path d="M1127.4,1547.5v-8.8h37.6v8.8h-13.5v36.1h-10.6v-36.1H1127.4z"/>
			<path d="M1186.5,1538.6h11.2l10,20l9.5-20h11.4l-15.7,29.3v15.7h-10.6v-15.7L1186.5,1538.6z"/>
			<path d="M1254,1537c14.7,0,24.9,9.9,24.9,24.1c0,14.3-10.2,24.1-24.9,24.1c-14.8,0-24.9-9.8-24.9-24.1
				C1229.1,1546.9,1239.2,1537,1254,1537z M1254,1576.1c8.4,0,14.3-6.2,14.3-15c0-8.8-5.9-15-14.3-15c-8.4,0-14.3,6.2-14.3,15
				C1239.7,1569.9,1245.6,1576,1254,1576.1z"/>
			<path d="M1316.2,1538.6h10.6v26.3c0,11.9-8.2,20.2-20.1,20.2c-11.9,0-20.2-8.3-20.2-20.2v-26.3h10.7v26.1
				c0,5.8,3.5,11.2,9.5,11.4c5.7,0,9.5-4.7,9.5-11.4V1538.6z"/>
			<path d="M1336.6,1538.6h21.8c10.4,0,17.7,6.1,17.7,15c0,6-4,10.9-9.9,12.8l10.9,17.2h-11.9l-8.8-15.7h-9.2v15.7h-10.6V1538.6z
				 M1347.2,1546.6v13.7h9.5c5,0,8.8-2.7,8.8-6.8c0-4.4-3.8-6.9-8.8-6.9H1347.2z"/>
			<path d="M1402.8,1568.8h9.5c0,4.9,4.4,8.3,10.4,8.3c5.2,0,8.4-2.6,8.4-5.8c0-9.5-27.9-1.5-27.9-19.4c0-8.8,7.5-14.9,18.4-14.9
				c10.9,0,18.8,6.6,18.8,15.6h-9.2c0.1-4.4-3.9-7.6-9.3-7.6c-5,0-8.3,2.3-8.3,5.5c0,9.2,28,1.3,28,19.3c0,9-7.6,15.3-19.1,15.3
				S1402.8,1578.3,1402.8,1568.8z"/>
			<path d="M1479.1,1538.6h10.6v26.3c0,11.9-8.2,20.2-20.1,20.2c-11.9,0-20.2-8.3-20.2-20.2v-26.3h10.7v26.1
				c0,5.8,3.5,11.2,9.5,11.4c5.7,0,9.5-4.7,9.5-11.4V1538.6z"/>
			<path d="M1543.7,1568.1c-1.5,9.9-10.9,17.1-22.4,17.1c-13.9,0-24-10.1-24-24.1c0-14,10.1-24.1,24-24.1c11.4,0,20.7,7.3,22.3,17.5
				l-9.9,1.1c-1.3-5.6-6.3-9.5-12.1-9.5c-8,0-13.6,6.2-13.6,15c0,8.8,5.7,15,13.6,15c5.7,0,10.8-3.9,12.2-9.2L1543.7,1568.1z"/>
			<path d="M1596.2,1568.1c-1.5,9.9-10.9,17.1-22.4,17.1c-13.9,0-24-10.1-24-24.1c0-14,10.1-24.1,24-24.1c11.4,0,20.7,7.3,22.3,17.5
				l-9.9,1.1c-1.3-5.6-6.3-9.5-12.1-9.5c-8,0-13.6,6.2-13.6,15c0,8.8,5.7,15,13.6,15c5.7,0,10.8-3.9,12.2-9.2L1596.2,1568.1z"/>
			<path d="M1636.5,1575.1v8.5h-32.2v-45h31.6v8.5h-21.3v9.7h18.8v7.5h-18.8v10.8H1636.5z"/>
			<path d="M1642.8,1568.8h9.5c0,4.9,4.4,8.3,10.4,8.3c5.2,0,8.4-2.6,8.4-5.8c0-9.5-27.9-1.5-27.9-19.4c0-8.8,7.5-14.9,18.4-14.9
				c10.9,0,18.8,6.6,18.8,15.6h-9.2c0.1-4.4-3.9-7.6-9.3-7.6c-5,0-8.3,2.3-8.3,5.5c0,9.2,28,1.3,28,19.3c0,9-7.6,15.3-19.1,15.3
				S1642.8,1578.3,1642.8,1568.8z"/>
			<path d="M1688.2,1568.8h9.5c0,4.9,4.4,8.3,10.4,8.3c5.2,0,8.4-2.6,8.4-5.8c0-9.5-27.9-1.5-27.9-19.4c0-8.8,7.5-14.9,18.4-14.9
				c10.9,0,18.8,6.6,18.8,15.6h-9.2c0.1-4.4-3.9-7.6-9.3-7.6c-5,0-8.3,2.3-8.3,5.5c0,9.2,28,1.3,28,19.3c0,9-7.6,15.3-19.1,15.3
				C1696.4,1585.2,1688.2,1578.3,1688.2,1568.8z"/>
			<path d="M1811.2,1538.6h10.7l-12.2,45h-15.3l-7.6-31.8l-7.6,31.8h-15.3l-12.3-45h10.8l9.5,36.3l9.1-36.3h11.7l8.9,36.3
				L1811.2,1538.6z"/>
			<path d="M1839.8,1583.6h-10.6v-45h10.6V1583.6z"/>
			<path d="M1845.9,1547.5v-8.8h37.6v8.8H1870v36.1h-10.6v-36.1H1845.9z"/>
			<path d="M1889.6,1583.6v-45h10.6v17.4h18.6v-17.4h10.6v45h-10.6v-19h-18.6v19H1889.6z"/>
			<path d="M1988.1,1538.6h10.6v26.3c0,11.9-8.2,20.2-20.1,20.2c-11.9,0-20.2-8.3-20.2-20.2v-26.3h10.7v26.1
				c0,5.8,3.5,11.2,9.5,11.4c5.7,0,9.5-4.7,9.5-11.4V1538.6z"/>
			<path d="M2006.7,1568.8h9.5c0,4.9,4.4,8.3,10.4,8.3c5.2,0,8.4-2.6,8.4-5.8c0-9.5-27.9-1.5-27.9-19.4c0-8.8,7.5-14.9,18.4-14.9
				c10.9,0,18.8,6.6,18.8,15.6h-9.2c0.1-4.4-3.9-7.6-9.3-7.6c-5,0-8.3,2.3-8.3,5.5c0,9.2,28,1.3,28,19.3c0,9-7.6,15.3-19.1,15.3
				C2014.9,1585.2,2006.7,1578.3,2006.7,1568.8z"/>
		</g>
	</g>
</g>
</svg>
